<?xml version="1.0" encoding="UTF-8"?>
<svg width="479.86" height="83.746" version="1.1" viewBox="0 0 126.96 22.158" xmlns="http://www.w3.org/2000/svg" xmlns:cc="http://creativecommons.org/ns#" xmlns:dc="http://purl.org/dc/elements/1.1/" xmlns:rdf="http://www.w3.org/1999/02/22-rdf-syntax-ns#">
 <metadata>
  <rdf:RDF>
   <cc:Work rdf:about="">
    <dc:format>image/svg+xml</dc:format>
    <dc:type rdf:resource="http://purl.org/dc/dcmitype/StillImage"/>
    <dc:title/>
   </cc:Work>
  </rdf:RDF>
 </metadata>
 <g transform="translate(4.3811 -279.41)">
  <g transform="matrix(.20004 0 0 .20004 -4.9647 280.31)">
   <g transform="translate(-37.687 -41.651)">
    <g transform="matrix(4.3627 0 0 4.3627 43.43 37.147)">
     <path d="m0 0h24v24h-24z" clip-rule="evenodd" fill="none"/>
    </g>
   </g>
   <g transform="matrix(6.443 0 0 6.443 -16.411 -25.818)" clip-rule="evenodd" fill="#181818" fill-rule="evenodd">
    <path d="m9 17 3-2.94c-0.39-0.04-0.68-0.06-1-0.06-2.67 0-8 1.34-8 4v2h9zm2-5c2.21 0 4-1.79 4-4s-1.79-4-4-4-4 1.79-4 4 1.79 4 4 4"/>
    <path d="m15.47 20.5-3.47-3.5 1.4-1.41 2.07 2.08 5.13-5.17 1.4 1.41z"/>
   </g>
  </g>
  <g>
   <g transform="matrix(1.6881 0 0 1.6881 -3.0593 -199.9)" fill="#181818" aria-label="Tutorbook">
    <path transform="matrix(.26458 0 0 .26458 -4.3811 281.29)" d="m196.29 19.828v29.6h7.8809v-3.5586c0.56 1.2 1.4119 2.1465 2.5586 2.8398 1.1467 0.66666 2.5068 1 4.0801 1 1.7867 0 3.4018-0.45272 4.8418-1.3594 1.44-0.93334 2.5718-2.2667 3.3984-4 0.82667-1.76 1.2402-3.8135 1.2402-6.1602 0-2.3467-0.41357-4.3878-1.2402-6.1211-0.82666-1.7333-1.9584-3.0523-3.3984-3.959-1.44-0.93332-3.0551-1.4004-4.8418-1.4004-1.5733 0-2.9334 0.34575-4.0801 1.0391-1.1467 0.66668-1.9986 1.6008-2.5586 2.8008v-10.721zm78.125 0v29.6h7.8809v-9.2793l6.1191 9.2793h9.4394l-8.959-11.199 8.7207-11.24h-9.1602l-6.1602 8.7207v-15.881zm-191.64 1.2812v6.2793h7.5586v22.039h7.8398v-22.039h7.6406v-6.2793zm54.408 0.43945v5.4395h-2.8808v6.5605h2.8808v7.0801c0 3.1467 0.7717 5.3998 2.3184 6.7598 1.5467 1.36 3.6947 2.0391 6.4414 2.0391h3.2402v-6.7188h-2.1211c-0.72 0-1.2406-0.14611-1.5606-0.43945-0.29333-0.29332-0.43945-0.78713-0.43945-1.4805v-7.2402h4.041v-6.5605h-4.041v-5.4395zm26.191 5.1602c-2.24 0-4.2524 0.46707-6.0391 1.4004-1.7867 0.90668-3.1859 2.2257-4.1992 3.959-1.0133 1.7333-1.5215 3.7744-1.5215 6.1211 0 2.3467 0.50815 4.3858 1.5215 6.1191 1.0133 1.7333 2.4126 3.0667 4.1992 4 1.7867 0.93332 3.7991 1.4004 6.0391 1.4004s4.24-0.46707 6-1.4004c1.7867-0.93334 3.1878-2.2667 4.2012-4 1.0133-1.7333 1.5195-3.7725 1.5195-6.1191 0-2.32-0.5062-4.3468-1.5195-6.0801-1.0133-1.76-2.4145-3.0933-4.2012-4-1.76-0.93332-3.76-1.4004-6-1.4004zm70.703 0c-2.24 0-4.2524 0.46707-6.0391 1.4004-1.7867 0.90668-3.1859 2.2257-4.1992 3.959-1.0133 1.7333-1.5215 3.7744-1.5215 6.1211 0 2.3467 0.50815 4.3858 1.5215 6.1191 1.0133 1.7333 2.4126 3.0667 4.1992 4 1.7867 0.93332 3.7991 1.4004 6.0391 1.4004s4.24-0.46707 6-1.4004c1.7867-0.93334 3.1878-2.2667 4.2012-4 1.0133-1.7333 1.5195-3.7725 1.5195-6.1191 0-2.32-0.5062-4.3468-1.5195-6.0801-1.0133-1.76-2.4145-3.0933-4.2012-4-1.76-0.93332-3.76-1.4004-6-1.4004zm25.469 0c-2.24 0-4.2524 0.46707-6.0391 1.4004-1.7867 0.90668-3.1859 2.2257-4.1992 3.959-1.0133 1.7333-1.5215 3.7744-1.5215 6.1211 0 2.3467 0.50815 4.3858 1.5215 6.1191 1.0133 1.7333 2.4126 3.0667 4.1992 4 1.7867 0.93332 3.7991 1.4004 6.0391 1.4004s4.24-0.46707 6-1.4004c1.7867-0.93334 3.1878-2.2667 4.2012-4 1.0133-1.7333 1.5195-3.7725 1.5195-6.1191 0-2.32-0.5062-4.3468-1.5195-6.0801-1.0133-1.76-2.4145-3.0933-4.2012-4-1.76-0.93332-3.76-1.4004-6-1.4004zm-65.863 0.08008c-1.4933 1e-6 -2.9049 0.39922-4.2383 1.1992-1.3333 0.8-2.4403 1.8678-3.3203 3.2012v-4.2012h-7.8809v22.439h7.8809v-9.6797c0-1.68 0.44031-2.8529 1.3203-3.5195 0.88-0.69334 2.199-1.0391 3.959-1.0391h2.2793zm-85.523 0.19922v13c0 2.9867 0.7345 5.3468 2.2012 7.0801 1.4933 1.7067 3.5325 2.5605 6.1191 2.5605 1.6533 0 3.0936-0.36008 4.3203-1.0801 1.2267-0.72 2.1608-1.6809 2.8008-2.8809v3.7598h7.8398v-22.439h-7.8398v11.881c0 1.36-0.34768 2.4135-1.041 3.1602-0.69334 0.74668-1.6255 1.1191-2.7988 1.1191-1.1467 0-2.0684-0.36008-2.7617-1.0801-0.66667-0.74668-1-1.7591-1-3.0391v-12.041zm55.215 6.5195c1.0667 0 1.9616 0.40117 2.6816 1.2012s1.0801 1.9605 1.0801 3.4805-0.36008 2.6928-1.0801 3.5195c-0.72 0.8-1.615 1.1992-2.6816 1.1992-1.0933 0-1.9988-0.39922-2.7188-1.1992s-1.0801-1.9728-1.0801-3.5195c0-1.52 0.36008-2.6805 1.0801-3.4805s1.6254-1.2012 2.7188-1.2012zm70.703 0c1.0667 0 1.9616 0.40117 2.6816 1.2012s1.0801 1.9605 1.0801 3.4805-0.36007 2.6928-1.0801 3.5195c-0.72 0.8-1.615 1.1992-2.6816 1.1992-1.0933 0-1.9988-0.39922-2.7188-1.1992s-1.0801-1.9728-1.0801-3.5195c0-1.52 0.36008-2.6805 1.0801-3.4805s1.6254-1.2012 2.7188-1.2012zm25.469 0c1.0667 0 1.9616 0.40117 2.6816 1.2012s1.0801 1.9605 1.0801 3.4805-0.36007 2.6928-1.0801 3.5195c-0.72 0.8-1.615 1.1992-2.6816 1.1992-1.0933 0-1.9988-0.39922-2.7188-1.1992s-1.0801-1.9728-1.0801-3.5195c0-1.52 0.36008-2.6805 1.0801-3.4805s1.6254-1.2012 2.7188-1.2012zm-51.336 0.08008c1.2267 0 2.2143 0.41358 2.9609 1.2402 0.77333 0.8 1.1602 1.9213 1.1602 3.3613 0 1.4667-0.38682 2.6128-1.1602 3.4395-0.74667 0.8-1.7343 1.1992-2.9609 1.1992-1.1733 0-2.1466-0.41358-2.9199-1.2402-0.77334-0.82668-1.1602-1.9584-1.1602-3.3984 0-1.4133 0.38682-2.5346 1.1602-3.3613 0.77333-0.82666 1.7466-1.2402 2.9199-1.2402z" fill="#181818"/>
   </g>
   <text x="36.54911" y="287.97964" fill="#000000" font-family="fontawesome-webfont" font-size="10.583px" letter-spacing="0px" stroke-width=".26458" word-spacing="0px" style="line-height:1.25" xml:space="preserve"><tspan x="36.54911" y="297.34341" stroke-width=".26458"/></text>
   <text x="22.383821" y="273.21301" fill="#000000" font-family="fontawesome-webfont" font-size="10.583px" letter-spacing="0px" stroke-width=".26458" word-spacing="0px" style="line-height:1.25" xml:space="preserve"><tspan x="22.383821" y="282.57678" stroke-width=".26458"/></text>
  </g>
 </g>
</svg>
