<?xml version="1.0" encoding="UTF-8" standalone="no"?>
<svg
   xmlns:dc="http://purl.org/dc/elements/1.1/"
   xmlns:cc="http://creativecommons.org/ns#"
   xmlns:rdf="http://www.w3.org/1999/02/22-rdf-syntax-ns#"
   xmlns:svg="http://www.w3.org/2000/svg"
   xmlns="http://www.w3.org/2000/svg"
   xmlns:sodipodi="http://sodipodi.sourceforge.net/DTD/sodipodi-0.dtd"
   xmlns:inkscape="http://www.inkscape.org/namespaces/inkscape"
   version="1.1"
   id="svg1044"
   width="500"
   height="500"
   viewBox="0 0 500 500"
   sodipodi:docname="pausd.svg"
   inkscape:version="1.0.2 (e86c870879, 2021-01-15)"
   inkscape:export-filename="/home/nchiang/repos/tutorbook/docs/org-logos/pausd.png"
   inkscape:export-xdpi="96"
   inkscape:export-ydpi="96">
  <metadata
     id="metadata1050">
    <rdf:RDF>
      <cc:Work
         rdf:about="">
        <dc:format>image/svg+xml</dc:format>
        <dc:type
           rdf:resource="http://purl.org/dc/dcmitype/StillImage" />
        <dc:title></dc:title>
      </cc:Work>
    </rdf:RDF>
  </metadata>
  <defs
     id="defs1048">
    <clipPath
       clipPathUnits="userSpaceOnUse"
       id="clipPath1619">
      <rect
         style="fill:#000000;fill-opacity:0.8"
         id="rect1621"
         width="699.06299"
         height="777.67712"
         x="-3.322612"
         y="48.291443" />
    </clipPath>
  </defs>
  <sodipodi:namedview
     pagecolor="#ffffff"
     bordercolor="#666666"
     borderopacity="1"
     objecttolerance="10"
     gridtolerance="10"
     guidetolerance="10"
     inkscape:pageopacity="0"
     inkscape:pageshadow="2"
     inkscape:window-width="1708"
     inkscape:window-height="1360"
     id="namedview1046"
     showgrid="false"
     inkscape:zoom="1.259"
     inkscape:cx="199.2345"
     inkscape:cy="251.58689"
     inkscape:window-x="8"
     inkscape:window-y="35"
     inkscape:window-maximized="0"
     inkscape:current-layer="g1052" />
  <g
     inkscape:groupmode="layer"
     inkscape:label="Image"
     id="g1052">
    <rect
       style="fill:#134d75;fill-opacity:1"
       id="rect1629"
       width="500"
       height="500"
       x="0"
       y="0" />
    <path
       id="path1623"
       style="fill:#ffffff;stroke-width:0.665218;fill-opacity:1"
       d="m 248.75137,49.961678 c -8.07841,0.06747 -16.15422,0.41225 -21.29862,1.010819 -37.70106,4.386645 -73.01771,19.085438 -102.49567,42.658435 -7.68912,6.14887 -21.64123,19.795208 -28.093782,27.479248 -37.723801,44.92361 -53.834461,104.17335 -44.070717,162.07814 7.438071,44.11219 29.354297,84.34477 62.388919,114.53062 33.44212,30.55818 75.68543,48.66278 121.30883,51.99227 9.80758,0.71574 26.61247,0.26139 37.20675,-1.00561 43.88306,-5.24816 83.42078,-23.94271 115.18936,-54.46478 32.53556,-31.25887 53.01065,-71.3503 59.82416,-117.13691 1.86494,-12.53233 1.67136,-43.86315 -0.35078,-56.80473 -3.26541,-20.89803 -9.242,-39.71949 -18.71837,-58.94329 C 399.01166,99.220502 338.81597,57.446338 270.06957,50.616506 c -5.1587,-0.512511 -13.23972,-0.7223 -21.3182,-0.654828 z m 1.65142,15.656024 c 3.23009,0.0089 6.46532,0.105097 9.7028,0.288432 38.38045,2.173422 72.11807,14.717718 103.13873,38.348806 8.04403,6.12781 24.32858,22.11164 30.72612,30.1596 21.94935,27.61188 35.32562,59.83114 39.38951,94.87419 1.62659,14.02635 1.0104,37.78369 -1.32657,51.14127 -3.31752,18.96191 -7.98263,33.34834 -16.41214,50.61768 -8.46058,17.33317 -19.52842,33.03364 -33.18562,47.0733 -22.06058,22.6785 -47.44352,38.31036 -77.80063,47.91391 -12.93651,4.09249 -33.01439,7.72797 -42.67796,7.72797 h -3.95625 V 391.8541 349.94533 l 42.07506,-0.0234 c 45.25403,-0.0249 47.69996,-0.17744 56.50719,-3.52099 15.37067,-5.83528 26.6712,-19.69696 30.17391,-37.01188 2.0349,-10.05915 0.39788,-20.49244 -4.8579,-30.95475 -6.79307,-13.52231 -30.18808,-54.11143 -88.07125,-152.80274 -7.53946,-12.85479 -15.90672,-20.04597 -28.177,-24.21292 -7.0861,-2.406428 -18.32883,-2.963698 -26.05135,-1.29146 -10.90074,2.36046 -22.0653,9.51388 -28.37184,18.17788 -2.13463,2.93266 -90.47264,155.59112 -93.45801,161.50647 -3.51847,6.97188 -4.45457,11.43988 -4.45125,21.24023 0,8.74486 0.13019,9.66896 2.08534,15.1415 2.98682,8.36044 5.75247,12.65094 12.59497,19.54079 4.98216,5.0166 7.01353,6.54669 11.64133,8.76869 10.70024,5.1376 9.36368,4.99392 49.17808,5.25028 34.76112,0.22382 35.63894,0.19843 37.75899,-1.11476 4.63052,-2.86823 5.30426,-8.67261 1.43694,-12.3793 l -2.02945,-1.94629 -35.71258,-0.35339 c -34.53575,-0.34247 -35.83951,-0.4026 -39.53766,-1.79428 -10.27464,-3.8665 -18.0231,-12.45048 -20.88029,-23.13063 -1.40474,-5.25089 -1.12794,-13.23608 0.63529,-18.29351 0.87616,-2.5128 15.03787,-27.72901 33.80927,-60.20227 17.76545,-30.7331 38.23582,-66.16342 45.4895,-78.73485 8.35714,-14.48396 14.36639,-24.14748 16.40568,-26.37876 6.48422,-7.09475 13.88557,-10.30744 23.71657,-10.294 8.95637,0.0123 15.84856,2.41996 21.91843,7.65651 4.7255,4.07673 4.65565,3.96174 35.05653,58.19232 23.73414,42.33815 36.42226,64.38252 48.24132,83.81753 13.94185,22.92572 14.48819,23.91596 15.60402,28.24581 4.52402,17.55467 -7.78451,36.98608 -25.51086,40.27299 -2.14293,0.39736 -20.39147,0.66392 -45.40116,0.66392 h -41.81782 v -6.15845 -6.15848 l 14.8063,-14.79591 14.80636,-14.79592 h 17.48926 c 14.33193,0 17.84169,-0.18132 19.44074,-1.00821 3.8914,-2.01232 5.2068,-7.88415 2.52836,-11.28923 -2.61783,-3.32798 -4.51663,-3.6678 -20.48925,-3.6678 h -14.65563 v -15.58196 -15.58067 l -1.70589,-2.02813 c -1.87644,-2.23006 -5.13748,-3.4288 -7.89035,-2.90254 -2.40603,0.45993 -5.42732,3.61097 -5.9454,6.20134 -0.23309,1.16533 -0.42361,9.49565 -0.42361,18.51049 v 16.3901 l -8.49191,8.47244 c -4.66989,4.65956 -8.71109,8.47114 -8.98044,8.47114 -0.26929,0 -0.48854,-19.23007 -0.48854,-42.7338 v -42.73381 l 12.68725,-12.70022 c 11.45452,-11.46583 12.7219,-12.95828 13.04453,-15.36369 0.67659,-5.04444 -2.84773,-8.86871 -8.17361,-8.86871 -2.2372,0 -3.17136,0.68707 -10.17711,7.47462 -4.24276,4.11066 -9.43905,9.11827 -11.54647,11.12811 l -3.83145,3.65351 -10.85923,-10.84359 c -9.71612,-9.70272 -11.13862,-10.88128 -13.52129,-11.20086 -3.02915,-0.4063 -6.17935,0.90466 -7.82803,3.25852 -1.29844,1.85378 -1.34121,6.00454 -0.0857,8.3711 0.52411,0.98798 6.28656,7.10633 12.80544,13.59671 l 11.85306,11.80113 -0.17668,43.05991 -0.17541,43.0612 -8.97135,-8.95186 -8.97007,-8.95317 v -18.08433 -18.08563 l -1.68513,-2.00216 c -3.41802,-4.06209 -9.49166,-4.00598 -12.55466,0.11694 -1.30662,1.75876 -1.40647,2.85109 -1.5942,17.42821 l -0.2001,15.55208 -15.55074,0.20008 c -14.57713,0.1877 -15.66949,0.28756 -17.42825,1.59418 -3.86799,2.87364 -4.11072,8.89326 -0.495,12.29226 l 1.71633,1.61367 18.40787,0.18839 18.40779,0.1897 14.46849,14.43991 14.46851,14.43992 v 56.38378 56.38244 l -4.49023,-0.1 c -5.0226,-0.11154 -5.64385,-0.17681 -15.46632,-1.62796 -57.77365,-8.53541 -109.49133,-46.04492 -136.255472,-98.82393 -9.80432,-19.33411 -16.040944,-39.8997 -18.830072,-62.09399 -1.083774,-8.62357 -1.074794,-34.04312 0.01464,-42.57397 5.419661,-42.4538 23.484602,-79.49034 53.329164,-109.33493 34.38189,-34.381848 81.61413,-53.72393 130.06584,-53.590361 z m 0.67945,85.918418 c -7.70669,-0.22333 -14.36333,6.95952 -12.23504,15.41306 0.8791,3.49191 4.77269,7.69669 7.98521,8.62316 2.96244,0.85435 4.40935,0.86625 7.32261,0.0571 10.52002,-2.9217 12.04398,-17.72654 2.33478,-22.67979 -1.79536,-0.9159 -3.62903,-1.36206 -5.40756,-1.41359 z m -67.49759,88.62997 c -3.32117,0.0629 -6.63189,1.37735 -8.86091,3.76135 -2.28994,2.44915 -3.20136,4.90873 -3.20136,8.63354 0,5.21339 3.00566,9.5724 7.77214,11.27234 3.36315,1.19945 5.71822,1.18247 8.70372,-0.065 10.06602,-4.20585 10.86474,-17.46499 1.34474,-22.3238 -1.76875,-0.90275 -3.76561,-1.31619 -5.75833,-1.27847 z m 133.43218,0.0675 c -4.92128,-0.0759 -9.87311,2.52698 -11.74396,7.47851 -2.49438,6.60197 1.23204,14.44731 7.80208,16.42778 10.93366,3.29589 20.27073,-9.27093 13.90585,-18.71576 -2.32673,-3.45274 -6.13624,-5.13157 -9.96397,-5.19053 z" />
  </g>
</svg>
