<svg width="160" height="38" xmlns="http://www.w3.org/2000/svg" xmlns:xlink="http://www.w3.org/1999/xlink"><defs><path id="a" d="M0 .21h26.733v29.383H0z"/><path id="b" d="M44.38 44.39l122.41-1.309v-32.09H44.38z"/><path d="M24.536 0s1.842 1.762 3.227 4.36L7.831 24.309 0 13.917l3.025-4.203 5.202 6.858L24.537 0z" id="c"/></defs><g fill="none" fill-rule="evenodd"><path d="M39.903 14.983c.865-.217 2.015-.446 3.448-.69 1.433-.244 3.084-.366 4.95-.366 1.675 0 3.067.238 4.177.71 1.108.474 1.993 1.138 2.656 1.99.663.853 1.13 1.875 1.4 3.066.27 1.192.406 2.504.406 3.94v11.855h-3.773V24.444c0-1.3-.088-2.409-.263-3.33-.176-.92-.467-1.665-.872-2.233a3.468 3.468 0 0 0-1.622-1.238c-.677-.257-1.515-.387-2.516-.387-.405 0-.826.015-1.257.041-.433.028-.846.062-1.238.102-.392.04-.743.088-1.054.142-.311.055-.534.095-.67.121v17.826h-3.772V14.983zM69.178 35.91c-1.705 0-3.2-.27-4.484-.814-1.285-.543-2.366-1.303-3.246-2.28-.879-.978-1.534-2.139-1.967-3.483-.432-1.343-.649-2.83-.649-4.459 0-1.629.236-3.121.71-4.48.473-1.357 1.142-2.53 2.009-3.522a9 9 0 0 1 3.184-2.322c1.257-.556 2.658-.835 4.2-.835.945 0 1.892.082 2.839.245.946.163 1.852.42 2.718.774l-.852 3.217a9.144 9.144 0 0 0-1.968-.653 11.127 11.127 0 0 0-2.372-.244c-2.11 0-3.727.667-4.85 1.996-1.122 1.33-1.683 3.272-1.683 5.824 0 1.14.128 2.186.385 3.135.257.952.663 1.767 1.218 2.444.554.68 1.264 1.201 2.13 1.568.865.367 1.92.55 3.164.55 1 0 1.907-.095 2.72-.285.81-.19 1.445-.393 1.906-.61l.527 3.176c-.217.135-.527.264-.934.387-.404.122-.865.23-1.378.325-.515.095-1.062.177-1.644.245-.582.067-1.142.102-1.683.102M90.048 22.797c.026-1.711-.398-3.115-1.27-4.215-.873-1.1-2.076-1.65-3.607-1.65-.86 0-1.62.17-2.278.51-.659.34-1.215.78-1.672 1.323a6.1 6.1 0 0 0-1.068 1.874 9.28 9.28 0 0 0-.504 2.158h10.399zm-14.39 2.077c0-1.873.27-3.508.807-4.907.537-1.398 1.25-2.56 2.136-3.482a8.68 8.68 0 0 1 3.063-2.077 9.482 9.482 0 0 1 3.547-.693c2.821 0 4.984.89 6.49 2.667 1.504 1.78 2.256 4.488 2.256 8.126v.63c0 .259-.013.496-.04.713H79.568c.161 2.199.793 3.87 1.895 5.01 1.101 1.14 2.821 1.71 5.159 1.71 1.315 0 2.425-.115 3.325-.346.9-.23 1.578-.455 2.035-.672l.524 3.176c-.457.245-1.256.503-2.398.774-1.142.271-2.438.408-3.89.408-1.827 0-3.405-.28-4.735-.835-1.33-.557-2.425-1.324-3.285-2.301-.86-.979-1.498-2.138-1.915-3.482-.417-1.344-.624-2.817-.624-4.419zM114.031 7.374h3.904v28.114h-3.904V22.506h-13.645v12.982h-3.905V7.374h3.905v11.724h13.645zM138.336 34.855c-.865.217-2.008.447-3.428.69-1.419.244-3.062.366-4.928.366-1.623 0-2.989-.237-4.097-.711-1.11-.473-2-1.143-2.677-2.01-.676-.866-1.163-1.888-1.46-3.066-.298-1.177-.446-2.482-.446-3.918V14.35h3.772v11.044c0 2.572.406 4.412 1.217 5.522.811 1.11 2.176 1.665 4.097 1.665.406 0 .824-.014 1.257-.04.433-.028.838-.062 1.217-.102.379-.04.724-.081 1.035-.122.31-.04.533-.088.669-.142V14.35h3.772v20.505zM145.25 32.144c.377.108.909.209 1.596.303.687.096 1.542.142 2.566.142 2.02 0 3.637-.668 4.849-2.005 1.213-1.337 1.818-3.234 1.818-5.691 0-1.08-.108-2.092-.323-3.038-.215-.945-.566-1.762-1.05-2.45a5.085 5.085 0 0 0-1.88-1.62c-.767-.392-1.691-.588-2.768-.588-1.024 0-1.966.175-2.829.526-.862.351-1.522.716-1.98 1.094v13.327zm0-16.851c.457-.297 1.151-.608 2.08-.932.93-.324 2-.486 3.213-.486 1.509 0 2.85.27 4.021.81a8.359 8.359 0 0 1 2.97 2.269c.808.972 1.42 2.133 1.839 3.483.417 1.35.627 2.836.627 4.456 0 1.701-.25 3.234-.748 4.597-.5 1.365-1.207 2.518-2.122 3.464-.917.945-2.02 1.674-3.314 2.187-1.293.512-2.748.77-4.364.77-1.752 0-3.3-.122-4.647-.365-1.348-.243-2.452-.486-3.314-.73V4.64l3.758-.648v11.301z" fill="#404042"/><path d="M37.016 14.996a18.568 18.568 0 0 1-.281 8.791 18.53 18.53 0 0 1-3.062 6.183c-6.147 8.158-17.711 9.813-25.829 3.696a18.252 18.252 0 0 1-6.235-8.483 18.54 18.54 0 0 1-1.067-5.79A18.463 18.463 0 0 1 4.278 7.818C9.956.284 20.255-1.703 28.19 2.857c.357.205.71.424 1.058.656l-2.1 3.143a14.632 14.632 0 0 0-.842-.522c-6.352-3.65-14.528-1.99-19.01 3.96a14.683 14.683 0 0 0-2.975 9.213 14.76 14.76 0 0 0 .848 4.608 14.47 14.47 0 0 0 4.95 6.732c6.446 4.858 15.64 3.542 20.534-2.952a14.749 14.749 0 0 0 2.44-4.923 14.711 14.711 0 0 0 .223-6.998l3.699-.778z" fill="#404042" fill-rule="nonzero"/><g transform="translate(10.668 2.09)"><mask id="d" fill="#fff"><use xlink:href="#c"/></mask><use fill="#009BDE" xlink:href="#c"/><g mask="url(#d)"><g transform="translate(-12.513 -9.854)"><ellipse fill="#FFAD00" cx="35.807" cy="17.468" rx="14.178" ry="14.354"/><ellipse fill="#009B48" cx="47.059" cy="14.506" rx="14.178" ry="14.354"/><ellipse fill="#B731A9" cx="19.154" cy="38.201" rx="19.129" ry="19.367"/><ellipse fill="#009BDE" cx="13.078" cy="28.86" rx="10.802" ry="10.936"/></g></g></g></g></svg>