<svg data-name="borders Image" xmlns="http://www.w3.org/2000/svg" viewBox="0 0 3000 80.49"><path d="M0 0v43c19.4.86 38.83 1.45 58.22 1 29.51-.64 59-2.67 88.49-4.2 18.87-1 37.77-1.69 56.58-3.36 38-3.37 75.85-7.57 113.81-10.93 25-2.23 50.15-3.78 75.25-5.3 42.4-2.57 84.79-5.33 127.23-7.14 38.24-1.62 76.53-2.39 114.8-2.89 18.91-.25 37.87.5 56.76 1.62 31.42 1.87 62.8 4.32 94.19 6.67 22 1.64 44 3.18 65.89 5.37 40.73 4.07 81.39 9 122.15 12.8 38.81 3.62 77.7 6.49 116.58 9.3 25.92 1.88 51.88 3 77.83 4.58 25 1.48 50 3.18 75 4.48 34.61 1.8 69.24 3.11 103.84 5.06 21.16 1.2 42.29 3.07 63.42 4.89 15.69 1.35 31.34 3.2 47 4.66 23.48 2.19 47 4.55 70.48 6.24 24.64 1.76 49.36 2.49 74 4.3 12.45.92 24.82.06 35.58-5.49 7.38-3.81 13.9-6.3 22.27-6 11.38.37 22.83-.7 34.23-1.4 15.65-1 31.28-2.64 46.94-3.15 18.84-.6 37.71-.25 56.57-.43 3.16 0 7 1.22 9.49-3.51l-7.49-3c11.23-4.31 17.49-4.57 28.59-1.89 7.26 1.75 14.51 3 22 .9a73.59 73.59 0 0 1 15-2.63c16.11-1 32.24-1.45 48.35-2.31 9.72-.51 19.41-1.71 29.13-1.88 3.23-.06 8-3.59 10.08 2.49.13.4 2.24.74 2.83.3 9-6.76 17.93-1.65 26.45.79 7.43 2.14 14.48 3.16 22 1.49 2.55-.57 7.11-1.2 7.67-.15 3.33 6.17 8.77 3.94 13.43 4 8.1.14 17.18 2 24.06-1 9.44-4.11 18.59-5.47 28.52-5.95 18.88-.9 37.72-2.66 56.59-3.82 5.8-.35 11.66.47 17.46.12 24.32-1.44 48.62-3.36 72.95-4.62 11.77-.61 23.6-.07 35.4-.28 2.58-.05 5.64-.42 7.61-1.84 6.21-4.5 12.62-4.95 19.74-2.93s14.37 4.57 21.7 5.13c15.62 1.18 31 5.24 47 3.34 8.82-1 17.87-.3 26.81-.16 16.76.27 33.52 1.28 50.26.9 23.62-.55 47.13-.09 70.58 2.9 8.93 1.14 18.06 1 26.91 2.49a620 620 0 0 0 105.79 9c3.93 0 8-.11 11.77.7 14.11 3 28.08 1.29 42.13-.36a53 53 0 0 1 15.25.26 67.31 67.31 0 0 0 30.33-1.71 48.78 48.78 0 0 1 13.84-2.24 288.59 288.59 0 0 1 30.55 2.05c10.32 1.32 21.1-4.39 31.09 2.17 1.09.71 3.17.33 4.66-.06 15.36-4 30.75-4.32 46.49-2.1 8 1.13 16.37-.12 24.56 0a156.49 156.49 0 0 0 40.71-4.56c12.69-3.12 26.39-2.13 39.64-3.07 3.12-.23 6.19-1 9.31-1.43q11.8-1.56 23.63-3V0z"/></svg>
