<?xml version="1.0" encoding="UTF-8" standalone="no"?>
<svg
   xmlns:dc="http://purl.org/dc/elements/1.1/"
   xmlns:cc="http://creativecommons.org/ns#"
   xmlns:rdf="http://www.w3.org/1999/02/22-rdf-syntax-ns#"
   xmlns:svg="http://www.w3.org/2000/svg"
   xmlns="http://www.w3.org/2000/svg"
   xmlns:sodipodi="http://sodipodi.sourceforge.net/DTD/sodipodi-0.dtd"
   xmlns:inkscape="http://www.inkscape.org/namespaces/inkscape"
   id="svg8"
   version="1.1"
   viewBox="0 0 110.101 110.101"
   height="110.101mm"
   width="110.101mm"
   sodipodi:docname="logo.svg"
   inkscape:version="0.92.3 (2405546, 2018-03-11)">
  <sodipodi:namedview
     pagecolor="#ffffff"
     bordercolor="#666666"
     borderopacity="1"
     objecttolerance="10"
     gridtolerance="10"
     guidetolerance="10"
     inkscape:pageopacity="0"
     inkscape:pageshadow="2"
     inkscape:window-width="1920"
     inkscape:window-height="2132"
     id="namedview25"
     showgrid="false"
     inkscape:zoom="3.3701097"
     inkscape:cx="208.06488"
     inkscape:cy="208.06488"
     inkscape:window-x="1920"
     inkscape:window-y="0"
     inkscape:window-maximized="0"
     inkscape:current-layer="svg8" />
  <defs
     id="defs2" />
  <metadata
     id="metadata5">
    <rdf:RDF>
      <cc:Work
         rdf:about="">
        <dc:format>image/svg+xml</dc:format>
        <dc:type
           rdf:resource="http://purl.org/dc/dcmitype/StillImage" />
        <dc:title></dc:title>
      </cc:Work>
    </rdf:RDF>
  </metadata>
  <g
     transform="matrix(5.7561865,0,0,5.7561865,-16.901832,-15.462785)"
     style="clip-rule:evenodd;fill:#181818;fill-opacity:1;fill-rule:evenodd"
     id="g3773">
    <path
       inkscape:connector-curvature="0"
       style="fill:#181818;fill-opacity:1"
       d="m 9,17 3,-2.94 C 11.61,14.02 11.32,14 11,14 8.33,14 3,15.34 3,18 v 2 h 9 z m 2,-5 c 2.21,0 4,-1.79 4,-4 C 15,5.79 13.21,4 11,4 8.79,4 7,5.79 7,8 c 0,2.21 1.79,4 4,4"
       id="path3769" />
    <path
       inkscape:connector-curvature="0"
       style="fill:#181818;fill-opacity:1"
       d="M 15.47,20.5 12,17 l 1.4,-1.41 2.07,2.08 5.13,-5.17 1.4,1.41 z"
       id="path3771" />
  </g>
</svg>
