<svg width="32" height="2" fill="none" xmlns="http://www.w3.org/2000/svg"><path d="M28.003 1.915h-.04l-.799-.04-.749.02a.715.715 0 0 1-.31-.06l-.639-.258-.629.05-.689.159c-.08.02-.15.02-.23.01l-.798-.08-1.498.07-.869-.02-1.528-.09-.719.14a.57.57 0 0 1-.26 0l-.678-.11-.68.11a.74.74 0 0 1-.33-.02l-.588-.169-.59.169c-.12.03-.24.04-.359.02l-1.398-.239-.63.209a.803.803 0 0 1-.408.02l-.64-.15-.639.13c-.09.02-.18.02-.27 0l-.748-.12-.76-.039-.888-.129-.709-.01-.719.01-2.377.347c-.07.01-.14 0-.21-.01l-1.417-.277-.57.238a.74.74 0 0 1-.439.04L.571 1.477A.745.745 0 0 1 .022.575c.1-.406.5-.644.909-.545l1.348.307L2.868.1c.14-.06.3-.07.46-.04l1.437.298L7.022.02c.04-.01.08-.01.12-.01L7.941 0l.829.02.899.129.709.02c.03 0 .07 0 .1.01l.669.109.669-.13a.7.7 0 0 1 .32.01l.598.14.6-.199c.11-.04.23-.05.339-.03l1.448.238.629-.188a.79.79 0 0 1 .43 0l.639.188.639-.099c.08-.01.16-.01.24 0l.668.11.67-.13c.05-.01.11-.02.16-.01l2.396.11 1.578-.06.769.07.689-.15.908-.079c.12-.01.24.01.35.05l.659.268.649-.02.769.04.729-.12.819-.04.739-.188a.72.72 0 0 1 .41.01l.808.248c.4.12.62.536.5.933a.75.75 0 0 1-.94.496l-.609-.189-.609.16a.78.78 0 0 1-.16.019l-.808.04-.72.129c-.03-.01-.07 0-.12 0z" fill="#000"/></svg>
