<svg data-name="borders Image" xmlns="http://www.w3.org/2000/svg" viewBox="0 0 3000 80.5">
  <path d="M0 0v43c19.4.9 38.8 1.4 58.2 1 29.5-.6 59-2.7 88.5-4.2 18.9-1 37.8-1.7 56.6-3.4 38-3.3 75.8-7.5 113.8-10.9 25-2.2 50.1-3.8 75.2-5.3 42.4-2.6 84.8-5.3 127.3-7.1 38.2-1.7 76.5-2.4 114.8-3 18.9-.2 37.8.6 56.7 1.7 31.5 1.9 62.8 4.3 94.2 6.7 22 1.6 44 3.1 66 5.3 40.6 4.1 81.3 9 122 12.8A5608 5608 0 001090 46c26 2 52 3 77.9 4.6 25 1.5 50 3.2 75 4.5 34.6 1.8 69.2 3.1 103.8 5 21.2 1.3 42.3 3.1 63.4 5 15.7 1.3 31.4 3.2 47 4.6 23.5 2.2 47 4.6 70.5 6.3 24.7 1.7 49.4 2.4 74 4.2 12.5 1 24.8.1 35.6-5.4a42.8 42.8 0 0122.3-6c11.3.3 22.8-.7 34.2-1.4 15.6-1 31.3-2.7 47-3.2 18.8-.6 37.6-.2 56.5-.4 3.2 0 7 1.2 9.5-3.5l-7.5-3a40.6 40.6 0 0128.6-2c7.3 1.8 14.5 3 22 1a73.6 73.6 0 0115-2.7c16.1-1 32.2-1.4 48.3-2.3 9.8-.5 19.5-1.7 29.2-1.8 3.2-.1 8-3.6 10 2.4.2.4 2.3.8 2.9.3 9-6.7 18-1.6 26.4.8a43.3 43.3 0 0022 1.5c2.6-.5 7.1-1.2 7.7-.1 3.3 6.1 8.8 4 13.4 4 8.1.1 17.2 2 24.1-1a78.1 78.1 0 0128.5-6c18.9-.9 37.7-2.6 56.6-3.8 5.8-.3 11.7.5 17.5.1 24.3-1.4 48.6-3.3 73-4.6 11.7-.6 23.5 0 35.3-.3 2.6 0 5.7-.4 7.6-1.8 6.2-4.5 12.7-5 19.8-3s14.3 4.6 21.7 5.2c15.6 1.2 31 5.2 47 3.3 8.8-1 17.8-.3 26.8-.1 16.7.2 33.5 1.2 50.2.9a470 470 0 0170.6 2.9c9 1.1 18 1 27 2.5a620 620 0 00105.7 9c4 0 8-.2 11.8.7 14.1 3 28 1.2 42.1-.4a53 53 0 0115.3.3 67.3 67.3 0 0030.3-1.8 48.8 48.8 0 0113.8-2.2 288.6 288.6 0 0130.6 2c10.3 1.4 21-4.3 31 2.2 1.2.7 3.2.4 4.7 0a117 117 0 0146.5-2.1c8 1.1 16.4-.2 24.6 0a156.5 156.5 0 0040.7-4.6c12.7-3.1 26.4-2.1 39.6-3 3.2-.3 6.2-1 9.3-1.5q11.8-1.6 23.7-3V0z"/>
</svg>
