<svg width="479.86" height="83.75" viewBox="0 0 126.96 22.16" xmlns="http://www.w3.org/2000/svg">
  <path d="M.57 0H21.5v20.94H.57z" clip-rule="evenodd" fill="none"/>
  <g clip-rule="evenodd" fill="#fff" fill-rule="evenodd">
    <path d="M7.73 17.65l3.87-3.8c-.5-.04-.88-.07-1.29-.07C6.87 13.78 0 15.5 0 18.93v2.58h11.6zm2.58-6.45a5.15 5.15 0 100-10.3 5.15 5.15 0 000 10.3M16.07 22.16l-4.47-4.51 1.8-1.82 2.67 2.68 6.61-6.66 1.8 1.81z"/>
  </g>
  <g>
    <path d="M81.6 4.4V17.6h3.52v-1.59c.25.54.63.96 1.14 1.27.51.3 1.12.45 1.82.45.8 0 1.52-.2 2.16-.61a4.24 4.24 0 001.52-1.79c.37-.78.56-1.7.56-2.75a6.3 6.3 0 00-.56-2.73 4.12 4.12 0 00-1.52-1.77 3.9 3.9 0 00-2.16-.63c-.7 0-1.3.16-1.82.47-.51.3-.9.71-1.14 1.25V4.39zm34.89 0V17.6h3.52v-4.14l2.73 4.14h4.22l-4-5 3.9-5.02h-4.1l-2.75 3.9v-7.1zm-85.6.56v2.8h3.38v9.85h3.5V7.77h3.42v-2.8zm24.3.2v2.43h-1.28v2.93h1.29v3.16c0 1.4.34 2.41 1.03 3.02.7.6 1.65.91 2.88.91h1.45v-3h-.95c-.32 0-.55-.06-.7-.2-.13-.13-.2-.35-.2-.66v-3.23h1.81V7.59h-1.8V5.16zm11.7 2.3c-1 0-1.9.21-2.7.63-.79.4-1.42 1-1.87 1.77a5.32 5.32 0 00-.68 2.73c0 1.05.23 1.96.68 2.74a4.6 4.6 0 001.88 1.78c.8.42 1.7.63 2.7.63s1.89-.21 2.67-.63a4.6 4.6 0 001.88-1.78c.45-.78.68-1.69.68-2.74 0-1.03-.23-1.94-.68-2.71a4.45 4.45 0 00-1.88-1.79 5.63 5.63 0 00-2.67-.63zm31.58 0c-1 0-1.9.21-2.7.63-.8.4-1.42 1-1.87 1.77a5.32 5.32 0 00-.68 2.73c0 1.05.23 1.96.68 2.74a4.6 4.6 0 001.88 1.78c.8.42 1.7.63 2.7.63s1.89-.21 2.67-.63a4.6 4.6 0 001.88-1.78c.45-.78.68-1.69.68-2.74 0-1.03-.23-1.94-.68-2.71a4.45 4.45 0 00-1.88-1.79 5.63 5.63 0 00-2.68-.63zm11.38 0c-1 0-1.9.21-2.7.63-.8.4-1.42 1-1.87 1.77a5.32 5.32 0 00-.68 2.73c0 1.05.22 1.96.68 2.74a4.6 4.6 0 001.87 1.78c.8.42 1.7.63 2.7.63s1.9-.21 2.68-.63a4.6 4.6 0 001.88-1.78c.45-.78.67-1.69.67-2.74 0-1.03-.22-1.94-.67-2.71a4.45 4.45 0 00-1.88-1.79 5.63 5.63 0 00-2.68-.63zm-29.42.04c-.66 0-1.3.18-1.9.54a4.6 4.6 0 00-1.47 1.43V7.59h-3.52v10.02h3.52V13.3c0-.75.2-1.28.59-1.57.39-.31.98-.47 1.76-.47h1.02zm-38.2.09v5.8c0 1.34.33 2.4.99 3.17a3.44 3.44 0 002.73 1.14c.74 0 1.38-.16 1.93-.48.55-.32.97-.75 1.25-1.29v1.68h3.5V7.6h-3.5v5.3a2 2 0 01-.46 1.42c-.31.33-.73.5-1.25.5s-.93-.16-1.24-.48c-.3-.34-.44-.8-.44-1.36V7.59zM66.9 10.5c.47 0 .87.18 1.2.54s.48.87.48 1.55-.17 1.2-.49 1.57c-.32.36-.72.54-1.2.54s-.89-.18-1.2-.54-.5-.88-.5-1.57c0-.68.17-1.2.5-1.55s.72-.54 1.2-.54zm31.57 0c.48 0 .88.18 1.2.54s.48.87.48 1.55-.16 1.2-.48 1.57c-.32.36-.72.54-1.2.54s-.89-.18-1.21-.54-.48-.88-.48-1.57c0-.68.16-1.2.48-1.55s.73-.54 1.21-.54zm11.38 0c.48 0 .88.18 1.2.54s.48.87.48 1.55-.16 1.2-.48 1.57c-.32.36-.72.54-1.2.54-.49 0-.9-.18-1.21-.54s-.49-.88-.49-1.57c0-.68.16-1.2.49-1.55s.72-.54 1.2-.54zm-22.93.04c.55 0 .99.18 1.32.55.35.36.52.86.52 1.5 0 .66-.17 1.17-.52 1.54-.33.36-.77.53-1.32.53-.52 0-.96-.18-1.3-.55a2.13 2.13 0 01-.52-1.52c0-.63.17-1.13.52-1.5.34-.37.78-.55 1.3-.55z" fill="#181818" aria-label="Tutorbook"/>
    <text x="36.55" y="287.98" font-family="fontawesome-webfont" font-size="10.58" letter-spacing="0" stroke-width=".26" word-spacing="0" style="line-height:1.25" transform="translate(4.38 -279.41)"/>
    <text x="22.38" y="273.21" font-family="fontawesome-webfont" font-size="10.58" letter-spacing="0" stroke-width=".26" word-spacing="0" style="line-height:1.25" transform="translate(4.38 -279.41)"/>
  </g>
</svg>
