<?xml version="1.0" standalone="no"?>
<!DOCTYPE svg PUBLIC "-//W3C//DTD SVG 20010904//EN"
 "http://www.w3.org/TR/2001/REC-SVG-20010904/DTD/svg10.dtd">
<svg version="1.0" xmlns="http://www.w3.org/2000/svg"
 width="700.000000pt" height="700.000000pt" viewBox="0 0 700.000000 700.000000"
 preserveAspectRatio="xMidYMid meet">
<metadata>
Created by potrace 1.11, written by Peter Selinger 2001-2013
</metadata>
<g transform="translate(0.000000,700.000000) scale(0.100000,-0.100000)"
fill="#000000" stroke="none">
<path d="M2780 6529 c-25 -3 -63 -9 -85 -12 -194 -27 -453 -139 -626 -269
-385 -291 -601 -728 -593 -1204 6 -435 191 -823 528 -1108 331 -281 772 -396
1216 -317 200 35 419 130 602 261 95 68 265 244 334 345 119 175 212 395 240
569 3 21 8 48 11 60 9 38 12 340 3 396 -50 332 -174 593 -387 820 -223 236
-493 385 -813 447 -108 20 -335 27 -430 12z"/>
<path d="M5780 2699 c-388 -391 -812 -818 -942 -950 -130 -131 -240 -239 -244
-239 -3 0 -176 171 -384 380 l-378 380 -253 -256 c-140 -140 -254 -259 -254
-264 0 -4 286 -297 635 -649 l634 -642 336 340 c371 376 1832 1850 1978 1996
l92 93 -258 260 -258 261 -704 -710z"/>
<path d="M2847 2854 c-1 -1 -56 -4 -122 -8 -102 -4 -309 -26 -395 -40 -14 -2
-46 -7 -71 -10 -65 -9 -98 -15 -149 -26 -25 -5 -58 -11 -75 -14 -160 -24 -559
-134 -795 -219 -200 -72 -498 -210 -582 -268 -14 -11 -29 -19 -32 -19 -12 0
-180 -120 -249 -177 -201 -167 -329 -365 -366 -568 -6 -27 -10 -232 -11 -455
l0 -405 1647 1 c907 1 1652 2 1657 3 4 0 -240 249 -543 551 l-551 550 44 43
c24 23 223 218 442 433 219 216 448 439 508 498 60 58 107 106 105 107 -2 0
-13 2 -24 4 -50 10 -430 26 -438 19z"/>
</g>
</svg>
