<?xml version="1.0" encoding="UTF-8" standalone="no"?>
<svg
   xmlns:dc="http://purl.org/dc/elements/1.1/"
   xmlns:cc="http://creativecommons.org/ns#"
   xmlns:rdf="http://www.w3.org/1999/02/22-rdf-syntax-ns#"
   xmlns:svg="http://www.w3.org/2000/svg"
   xmlns="http://www.w3.org/2000/svg"
   xmlns:sodipodi="http://sodipodi.sourceforge.net/DTD/sodipodi-0.dtd"
   xmlns:inkscape="http://www.inkscape.org/namespaces/inkscape"
   sodipodi:docname="limitlessminds.svg"
   inkscape:version="1.0.1 (3bc2e813f5, 2020-09-07)"
   id="svg8"
   version="1.1"
   viewBox="0 0 132.29167 132.29167"
   height="500"
   width="500"
   inkscape:export-filename="/home/nchiang/repos/tutorbook/docs/org-logos/limitlessminds-final.png"
   inkscape:export-xdpi="96"
   inkscape:export-ydpi="96">
  <defs
     id="defs2">
    <rect
       x="3.7177148"
       y="11.382761"
       width="205.21236"
       height="160.63612"
       id="rect1560" />
  </defs>
  <sodipodi:namedview
     inkscape:window-maximized="0"
     inkscape:window-y="35"
     inkscape:window-x="8"
     inkscape:window-height="1360"
     inkscape:window-width="3424"
     inkscape:showpageshadow="false"
     borderlayer="false"
     showborder="true"
     inkscape:pagecheckerboard="true"
     units="px"
     showgrid="false"
     inkscape:document-rotation="0"
     inkscape:current-layer="layer1"
     inkscape:document-units="mm"
     inkscape:cy="287.80256"
     inkscape:cx="21.861721"
     inkscape:zoom="1.4"
     inkscape:pageshadow="2"
     inkscape:pageopacity="0.0"
     borderopacity="1.0"
     bordercolor="#666666"
     pagecolor="#ffffff"
     id="base" />
  <metadata
     id="metadata5">
    <rdf:RDF>
      <cc:Work
         rdf:about="">
        <dc:format>image/svg+xml</dc:format>
        <dc:type
           rdf:resource="http://purl.org/dc/dcmitype/StillImage" />
        <dc:title />
      </cc:Work>
    </rdf:RDF>
  </metadata>
  <g
     id="layer1"
     inkscape:groupmode="layer"
     inkscape:label="Layer 1">
    <rect
       style="fill:#eaeaea;fill-opacity:1;stroke-width:0.529167"
       id="rect857"
       width="132.29167"
       height="132.29167"
       x="0"
       y="0" />
    <g
       id="g861"
       transform="matrix(0.87492613,0,0,0.87492613,8.2731157,8.2731157)">
      <path
         d="m 22.204482,50.460265 q -0.130713,-1.829983 -0.588209,-2.548905 -0.457496,-0.718922 -0.980348,-1.176418 -0.588209,-0.457496 -1.5032,-0.522852 -0.914992,-0.130713 -1.960697,-0.130713 l -0.326782,-0.261426 -0.19607,-1.176418 0.130713,-0.261426 q 0.457496,0 1.503201,0.06536 1.045704,0.06535 2.156765,0.130713 1.111061,0.06536 2.156766,0.130713 1.045704,0.06535 1.5032,0.06535 h 1.241774 q 0.457496,0 1.503201,-0.06535 1.045704,-0.06535 2.156765,-0.130713 1.111061,-0.06535 2.156766,-0.130713 1.045704,-0.06536 1.5032,-0.06536 l 0.130713,0.261426 -0.196069,1.176418 -0.261426,0.261426 q -1.045705,0 -2.026053,0.130713 -0.914992,0.06536 -1.5032,0.522852 -0.522853,0.457496 -1.045705,1.241774 -0.457496,0.718922 -0.588209,2.483549 -0.06535,0.914991 -0.130713,1.699269 0,0.784279 0,1.829983 0,1.045705 0,2.548905 0,1.503201 0,3.856036 V 72.42006 q 0,2.287479 0,3.790679 0,1.5032 0,2.614262 0.06535,1.111061 0.130713,2.091409 0.06536,0.980348 0.130713,2.222122 0.06535,1.241774 1.372488,1.241774 h 5.555305 q 3.921392,0 5.882088,-0.130713 2.026053,-0.19607 2.875688,-0.718922 0.914991,-0.522852 1.111061,-1.568557 0.196069,-1.111061 0.653565,-2.875687 l 0.19607,-0.261426 h 1.69927 l -1.176418,8.300279 -0.522852,0.653566 q -0.326783,0 -1.241774,-0.06535 -0.849635,0 -2.026053,-0.06535 -1.111061,-0.06535 -2.352835,-0.130713 -1.176418,0 -2.026053,0 h -13.20202 q -0.457496,0 -1.5032,0.06535 -1.045705,0.06535 -2.156766,0.130713 -1.111061,0.06535 -2.156765,0.130713 -1.045705,0.06535 -1.503201,0.06535 l -0.130713,-0.261426 0.19607,-1.176418 0.326782,-0.261426 q 1.045705,0 1.960697,-0.06535 0.914991,-0.130714 1.5032,-0.588209 0.522852,-0.457496 0.980348,-1.307131 0.457496,-0.849635 0.653565,-2.418192 0.06535,-0.457495 0.06535,-1.045704 0.06536,-0.653566 0.06536,-1.568557 0,-0.914992 0,-2.222122 0,-1.307131 0,-3.267827 V 60.459814 q 0,-2.287478 0,-3.856035 0,-1.568557 -0.06536,-2.679618 0,-1.111061 -0.06535,-1.89534 0,-0.784278 -0.06536,-1.568556 z"
         style="font-style:normal;font-variant:normal;font-weight:normal;font-stretch:normal;font-size:79.375px;line-height:1.25;font-family:Quattrocento;-inkscape-font-specification:Quattrocento;letter-spacing:13.2292px;word-spacing:0px;white-space:pre;shape-inside:url(#rect1560);fill:#e06666;fill-opacity:0.984314;stroke-width:0.823389"
         id="path850" />
      <path
         d="m 115.57713,87.909559 q -0.45749,0 -1.50319,-0.06535 -1.04571,-0.06535 -2.15677,-0.130713 -1.11106,-0.06535 -2.15677,-0.130713 -1.0457,-0.06535 -1.5032,-0.06535 h -1.24177 q -0.4575,0 -1.5032,0.06535 -1.04571,0.06535 -2.15677,0.130713 -1.11106,0.06535 -2.15677,0.130713 -1.0457,0.06535 -1.503192,0.06535 l -0.196074,-0.261426 0.196074,-1.176418 0.261426,-0.261426 q 1.045706,0 1.960696,-0.06535 0.98034,-0.130714 1.5032,-0.588209 0.4575,-0.457496 0.84964,-1.176418 0.45749,-0.718922 0.45749,-2.548905 0,-0.457495 0,-1.045704 0,-0.653566 -0.0654,-1.568557 0,-0.914992 -0.0654,-2.222122 -0.0654,-1.307131 -0.19606,-3.267827 -0.52286,-6.862436 -0.84964,-10.914541 -0.26143,-4.117462 -0.45749,-6.404941 -0.19608,-2.287478 -0.32679,-3.267826 -0.0654,-0.980348 -0.13071,-1.633914 -0.4575,1.176418 -1.43785,3.659966 -0.98034,2.418192 -2.287472,5.620662 -1.241778,3.137114 -2.679622,6.731723 -1.437844,3.59461 -2.875687,7.123862 -1.372484,3.529253 -2.679615,6.666367 -1.241774,3.137114 -2.156766,5.359236 H 85.447731 L 72.376424,51.636686 q -0.06535,0.653566 -0.130713,1.372488 -0.06535,0.718921 -0.130713,1.764626 -0.06535,0.980348 -0.196069,2.352835 -0.06535,1.307131 -0.19607,3.267827 l -0.914992,12.025602 q -0.196069,2.222122 -0.261426,3.659966 -0.06535,1.437844 -0.130713,2.483549 -0.06535,1.045704 -0.06535,1.764626 0,0.718922 0,1.5032 0,1.829983 0.392139,2.548905 0.457496,0.718922 0.980348,1.176418 0.522852,0.457495 1.176418,0.588209 0.718922,0.06535 1.764626,0.06535 l 0.261426,0.261426 0.19607,1.176418 -0.130713,0.261426 q -0.457496,0 -1.372487,-0.06535 -0.849635,-0.06535 -1.764627,-0.130713 -0.914991,-0.06535 -1.829983,-0.130713 -0.849635,-0.06535 -1.30713,-0.06535 H 67.47469 q -0.457495,0 -1.5032,0.06535 -0.980348,0.06535 -2.156766,0.130713 -1.111061,0.06535 -2.156765,0.130713 -0.980348,0.06535 -1.437844,0.06535 l -0.130713,-0.261426 0.19607,-1.176418 0.392139,-0.261426 q 0.980348,0 1.895339,-0.06535 0.914992,-0.130714 1.568557,-0.588209 0.522852,-0.457496 1.045705,-1.176418 0.588208,-0.718922 0.849635,-2.548905 0.06535,-0.457495 0.130713,-1.045704 0.06535,-0.653566 0.130713,-1.568557 0.130713,-0.914992 0.261426,-2.222122 0.130713,-1.307131 0.261426,-3.267827 l 0.914991,-13.267377 q 0.19607,-2.287478 0.261427,-3.856035 0.130713,-1.568557 0.130713,-2.679618 0.06535,-1.111061 0.06535,-1.895339 0.06535,-0.784279 0.06535,-1.568557 0,-1.829983 -0.588209,-2.548905 -0.522853,-0.784279 -1.045705,-1.176418 -0.588209,-0.457495 -1.5032,-0.522852 -0.914992,-0.130713 -1.960696,-0.130713 l -0.326783,-0.261426 -0.196069,-1.176418 0.130713,-0.261426 q 0.457495,0 1.5032,0.06536 1.045704,0.06535 2.156766,0.130713 1.111061,0.06536 2.156765,0.130713 1.045705,0.06535 1.5032,0.06535 h 2.287479 q 0.522852,0 1.437844,-0.06535 0.980348,-0.06535 1.568557,-0.19607 l 0.326782,0.19607 q 0.06536,0.849635 0.457496,2.287479 0.457496,1.372487 1.045705,3.137113 0.653565,1.764627 1.372487,3.790679 0.718922,1.960696 1.437844,3.921392 l 4.444244,12.090959 q 1.111061,3.137114 2.026053,5.359236 0.914991,2.156766 1.633913,3.856035 0.19607,-0.326782 1.111061,-2.483548 0.914992,-2.222122 2.222122,-5.424592 1.372487,-3.267827 2.875684,-7.123862 1.503197,-3.856036 2.875688,-7.516002 1.372483,-3.725322 2.352835,-6.862436 0.980348,-3.137114 1.241778,-4.967097 l 0.32678,-0.261426 q 0.52285,0.130713 1.11106,0.19607 0.58821,0.06535 1.11106,0.06535 h 2.35284 q 0.45749,0 1.5032,-0.06535 1.0457,-0.06535 2.15677,-0.130713 1.11105,-0.06535 2.15676,-0.130713 1.0457,-0.06536 1.5032,-0.06536 l 0.13071,0.261426 -0.19607,1.176418 -0.32678,0.261426 q -1.0457,0 -2.02605,0.130713 -0.915,0.06536 -1.43785,0.522852 -0.52285,0.392139 -1.11106,1.176418 -0.52285,0.784278 -0.52285,2.548905 0,0.914991 0,1.69927 0.0654,0.784278 0.0654,1.829983 0.0654,1.045704 0.13071,2.548904 0.13072,1.503201 0.32679,3.856036 l 0.78428,12.025602 q 0.19606,2.352836 0.26142,3.856036 0.13072,1.437844 0.19607,2.418192 0.13071,0.980348 0.19607,1.699269 0.13072,0.653566 0.26143,1.437844 0.26143,1.829983 0.78428,2.548905 0.52285,0.718922 1.0457,1.176418 0.58821,0.457495 1.5032,0.588209 0.98035,0.06535 2.02606,0.06535 l 0.32677,0.261426 0.19608,1.176418 z"
         style="font-style:normal;font-variant:normal;font-weight:normal;font-stretch:normal;font-size:79.375px;line-height:1.25;font-family:Quattrocento;-inkscape-font-specification:Quattrocento;letter-spacing:13.2292px;word-spacing:0px;white-space:pre;shape-inside:url(#rect1560);fill:#69a84f;fill-opacity:0.988235;stroke-width:0.823389"
         id="path852" />
    </g>
    <text
       xml:space="preserve"
       style="font-size:2.64583px;line-height:1.25;font-family:sans-serif;letter-spacing:0px;word-spacing:0px;stroke-width:0.264583"
       x="-38.389774"
       y="62.344547"
       id="text848"><tspan
         sodipodi:role="line"
         id="tspan846"
         x="-38.389774"
         y="62.344547"
         style="stroke-width:0.264583"></tspan></text>
  </g>
</svg>
