<?xml version="1.0" encoding="UTF-8" standalone="no"?>
<svg
   xmlns:dc="http://purl.org/dc/elements/1.1/"
   xmlns:cc="http://creativecommons.org/ns#"
   xmlns:rdf="http://www.w3.org/1999/02/22-rdf-syntax-ns#"
   xmlns:svg="http://www.w3.org/2000/svg"
   xmlns="http://www.w3.org/2000/svg"
   xmlns:sodipodi="http://sodipodi.sourceforge.net/DTD/sodipodi-0.dtd"
   xmlns:inkscape="http://www.inkscape.org/namespaces/inkscape"
   sodipodi:docname="quarantutors.svg"
   inkscape:version="1.0.1 (3bc2e813f5, 2020-09-07)"
   id="svg8"
   version="1.1"
   viewBox="0 0 132.29167 132.29167"
   height="500"
   width="500"
   inkscape:export-filename="/home/nchiang/repos/tutorbook/docs/org-logos/quarantutors.png"
   inkscape:export-xdpi="96"
   inkscape:export-ydpi="96">
  <defs
     id="defs2">
    <rect
       x="9.2391001"
       y="37.825534"
       width="152.87778"
       height="45.170601"
       id="rect832" />
  </defs>
  <sodipodi:namedview
     inkscape:window-maximized="0"
     inkscape:window-y="35"
     inkscape:window-x="8"
     inkscape:window-height="1360"
     inkscape:window-width="3424"
     inkscape:showpageshadow="false"
     borderlayer="false"
     showborder="true"
     inkscape:pagecheckerboard="true"
     units="px"
     showgrid="false"
     inkscape:document-rotation="0"
     inkscape:current-layer="text830"
     inkscape:document-units="mm"
     inkscape:cy="273.76012"
     inkscape:cx="339.82745"
     inkscape:zoom="1.4"
     inkscape:pageshadow="2"
     inkscape:pageopacity="0.0"
     borderopacity="1.0"
     bordercolor="#666666"
     pagecolor="#ffffff"
     id="base" />
  <metadata
     id="metadata5">
    <rdf:RDF>
      <cc:Work
         rdf:about="">
        <dc:format>image/svg+xml</dc:format>
        <dc:type
           rdf:resource="http://purl.org/dc/dcmitype/StillImage" />
        <dc:title></dc:title>
      </cc:Work>
    </rdf:RDF>
  </metadata>
  <g
     id="layer1"
     inkscape:groupmode="layer"
     inkscape:label="Layer 1">
    <g
       aria-label="Quarantutors"
       id="text830"
       style="font-size:21.1667px;line-height:1.25;font-family:sans-serif;letter-spacing:0px;word-spacing:0px;white-space:pre;shape-inside:url(#rect832)">
      <rect
         style="fill:#eaeaea;stroke-width:0.529167;fill-opacity:1"
         id="rect895"
         width="132.29167"
         height="132.29167"
         x="0"
         y="0" />
      <g
         id="g893"
         transform="matrix(1.328071,0,0,1.328071,-0.18782049,-13.193555)"
         style="fill:#696969;fill-opacity:1">
        <g
           id="g877"
           style="fill:#696969;fill-opacity:1">
          <path
             d="m 22.530969,60.504834 q -0.867835,0.381 -1.883836,0.381 -2.05317,0 -3.471339,-2.137836 l -0.910168,-1.375836 q -2.730505,-0.04233 -4.360341,-1.86267 -1.672169,-1.926169 -1.672169,-5.312841 0,-3.513673 1.73567,-5.376342 1.629836,-1.756836 4.48734,-1.756836 2.836338,0 4.508507,1.799169 1.73567,1.86267 1.73567,5.334009 0,2.857504 -1.100669,4.572007 -1.100668,1.693336 -2.963338,2.286004 l 0.338667,0.529167 q 0.508001,0.783168 1.502836,0.825501 0.910168,0 2.05317,-0.486834 z m -2.413004,-10.26585 q 0,-2.37067 -0.994835,-3.640672 -0.973668,-1.291169 -2.645837,-1.291169 -1.67217,0 -2.667004,1.291169 -0.994835,1.270002 -0.994835,3.640672 0,2.349504 0.994835,3.619506 0.994834,1.248835 2.667004,1.248835 1.672169,0 2.645837,-1.248835 0.994835,-1.270002 0.994835,-3.619506 z"
             style="font-style:normal;font-variant:normal;font-weight:bold;font-stretch:normal;font-family:Karla;-inkscape-font-specification:'Karla Bold';fill:#696969;fill-opacity:1"
             id="path838" />
          <path
             d="m 32.563962,55.213159 q -0.973668,2.05317 -3.132672,2.05317 -2.730504,0 -3.598339,-2.137837 -0.3175,-0.740835 -0.3175,-1.79917 v -6.561677 h 2.49767 v 6.307677 q 0,1.016002 0.486834,1.524002 0.486835,0.486834 1.185336,0.486834 0.719667,0 1.206502,-0.1905 0.486834,-0.211667 0.846668,-0.613834 0.783167,-0.910168 0.825501,-2.434171 v -5.080008 h 2.497671 v 10.308183 h -2.497671 z"
             style="font-style:normal;font-variant:normal;font-weight:bold;font-stretch:normal;font-family:Karla;-inkscape-font-specification:'Karla Bold';fill:#696969;fill-opacity:1"
             id="path840" />
          <path
             d="m 42.385288,51.064485 q 1.227669,0 2.836338,0.402168 v -1.016002 q 0,-1.079502 -0.4445,-1.587502 -0.423334,-0.529168 -1.418169,-0.529168 -0.973669,0 -1.502836,0.402167 -0.529168,0.381001 -0.529168,1.100669 h -2.730504 q 0,-1.756836 1.227669,-2.540004 1.248835,-0.783168 3.471339,-0.783168 3.175005,0 4.106339,2.222503 0.317501,0.762002 0.317501,1.79917 v 6.54051 h -2.18017 l -0.190501,-1.375835 q -0.994834,1.672169 -3.048004,1.672169 -1.98967,0 -3.090339,-0.973668 -1.016001,-0.931335 -1.016001,-2.349504 0,-1.439336 1.121835,-2.201337 1.121835,-0.783168 3.069171,-0.783168 z m 2.836338,1.98967 q -1.248835,-0.338667 -2.328337,-0.338667 -2.032003,0 -2.032003,1.354669 0,0.571501 0.465667,0.994835 0.465668,0.402167 1.481669,0.402167 1.037169,0 1.693336,-0.677334 0.677335,-0.698501 0.719668,-1.73567 z"
             style="font-style:normal;font-variant:normal;font-weight:bold;font-stretch:normal;font-family:Karla;-inkscape-font-specification:'Karla Bold';fill:#696969;fill-opacity:1"
             id="path842" />
          <path
             d="m 53.85763,48.820815 q 0.931335,-2.222503 2.794005,-2.222503 0.359834,0 0.910168,0.148166 l -0.04233,2.497671 q -0.592668,-0.127 -1.164169,-0.127 -2.497671,0 -2.497671,3.450172 v 4.508507 H 51.35996 V 46.767645 h 2.49767 z"
             style="font-style:normal;font-variant:normal;font-weight:bold;font-stretch:normal;font-family:Karla;-inkscape-font-specification:'Karla Bold';fill:#696969;fill-opacity:1"
             id="path844" />
          <path
             d="m 63.551949,51.064485 q 1.227668,0 2.836338,0.402168 v -1.016002 q 0,-1.079502 -0.444501,-1.587502 -0.423334,-0.529168 -1.418169,-0.529168 -0.973668,0 -1.502836,0.402167 -0.529167,0.381001 -0.529167,1.100669 h -2.730505 q 0,-1.756836 1.227669,-2.540004 1.248835,-0.783168 3.471339,-0.783168 3.175005,0 4.10634,2.222503 0.3175,0.762002 0.3175,1.79917 v 6.54051 h -2.18017 l -0.1905,-1.375835 q -0.994835,1.672169 -3.048005,1.672169 -1.98967,0 -3.090338,-0.973668 -1.016002,-0.931335 -1.016002,-2.349504 0,-1.439336 1.121835,-2.201337 1.121835,-0.783168 3.069172,-0.783168 z m 2.836338,1.98967 q -1.248836,-0.338667 -2.328337,-0.338667 -2.032004,0 -2.032004,1.354669 0,0.571501 0.465668,0.994835 0.465667,0.402167 1.481669,0.402167 1.037168,0 1.693336,-0.677334 0.677334,-0.698501 0.719668,-1.73567 z"
             style="font-style:normal;font-variant:normal;font-weight:bold;font-stretch:normal;font-family:Karla;-inkscape-font-specification:'Karla Bold';fill:#696969;fill-opacity:1"
             id="path846" />
          <path
             d="m 74.981957,48.566815 q 1.016002,-2.05317 3.259672,-2.05317 1.905003,0 2.857505,1.248835 0.973668,1.248835 0.973668,3.302005 v 6.011343 h -2.497671 v -6.011343 q 0,-1.143001 -0.550334,-1.714502 -0.550334,-0.592668 -1.545169,-0.592668 -0.994835,0 -1.714503,0.889001 -0.698501,0.889002 -0.740834,2.667005 v 4.762507 H 72.52662 V 46.788812 h 2.18017 z"
             style="font-style:normal;font-variant:normal;font-weight:bold;font-stretch:normal;font-family:Karla;-inkscape-font-specification:'Karla Bold';fill:#696969;fill-opacity:1"
             id="path848" />
        </g>
        <g
           id="g869"
           transform="translate(-56.573596,15.060529)"
           style="fill:#696969;fill-opacity:1">
          <path
             d="m 91.513136,56.821828 q -1.397002,0.550334 -2.201337,0.550334 -0.804334,0 -1.418169,-0.1905 -0.592667,-0.190501 -1.058335,-0.571501 -0.973668,-0.867835 -0.973668,-2.391837 v -5.757343 h -1.439336 v -1.672169 h 1.439336 v -2.709338 h 2.497671 v 2.709338 h 2.794004 v 1.672169 h -2.794004 v 5.672676 q 0,1.270002 1.206502,1.270002 0.613834,0 1.587502,-0.338667 z"
             style="font-style:normal;font-variant:normal;font-weight:bold;font-stretch:normal;font-family:Karla;-inkscape-font-specification:'Karla Bold';fill:#696969;fill-opacity:1"
             id="path850" />
          <path
             d="m 100.91112,55.213159 q -0.973667,2.05317 -3.13267,2.05317 -2.730505,0 -3.598339,-2.137837 -0.317501,-0.740835 -0.317501,-1.79917 v -6.561677 h 2.497671 v 6.307677 q 0,1.016002 0.486834,1.524002 0.486834,0.486834 1.185335,0.486834 0.719668,0 1.206502,-0.1905 0.486834,-0.211667 0.846668,-0.613834 0.78317,-0.910168 0.8255,-2.434171 v -5.080008 h 2.49767 v 10.308183 h -2.49767 z"
             style="font-style:normal;font-variant:normal;font-weight:bold;font-stretch:normal;font-family:Karla;-inkscape-font-specification:'Karla Bold';fill:#696969;fill-opacity:1"
             id="path852" />
          <path
             d="m 113.14544,56.821828 q -1.397,0.550334 -2.20133,0.550334 -0.80434,0 -1.41817,-0.1905 -0.59267,-0.190501 -1.05834,-0.571501 -0.97366,-0.867835 -0.97366,-2.391837 v -5.757343 h -1.43934 v -1.672169 h 1.43934 v -2.709338 h 2.49767 v 2.709338 h 2.794 v 1.672169 h -2.794 v 5.672676 q 0,1.270002 1.2065,1.270002 0.61383,0 1.5875,-0.338667 z"
             style="font-style:normal;font-variant:normal;font-weight:bold;font-stretch:normal;font-family:Karla;-inkscape-font-specification:'Karla Bold';fill:#696969;fill-opacity:1"
             id="path854" />
          <path
             d="m 119.74943,46.513645 q 1.03716,0 1.94733,0.338667 0.91017,0.3175 1.56634,0.994835 1.4605,1.481669 1.4605,4.10634 0,2.582337 -1.4605,4.064006 -1.31234,1.354669 -3.51367,1.354669 -2.20134,0 -3.55601,-1.354669 -1.4605,-1.460502 -1.4605,-4.064006 0,-2.645838 1.4605,-4.10634 1.3335,-1.333502 3.55601,-1.333502 z m 2.4765,5.418675 q 0,-1.629836 -0.635,-2.43417 -0.635,-0.825502 -1.778,-0.825502 -1.12184,0 -1.84151,0.825502 -0.71966,0.804334 -0.71966,2.43417 0,1.629836 0.635,2.455337 0.65616,0.804335 1.778,0.804335 1.12183,0 1.8415,-0.804335 0.71967,-0.825501 0.71967,-2.455337 z"
             style="font-style:normal;font-variant:normal;font-weight:bold;font-stretch:normal;font-family:Karla;-inkscape-font-specification:'Karla Bold';fill:#696969;fill-opacity:1"
             id="path856" />
          <path
             d="m 130.18461,48.820815 q 0.93134,-2.222503 2.79401,-2.222503 0.35983,0 0.91016,0.148166 l -0.0423,2.497671 q -0.59267,-0.127 -1.16417,-0.127 -2.49767,0 -2.49767,3.450172 v 4.508507 h -2.49767 V 46.767645 h 2.49767 z"
             style="font-style:normal;font-variant:normal;font-weight:bold;font-stretch:normal;font-family:Karla;-inkscape-font-specification:'Karla Bold';fill:#696969;fill-opacity:1"
             id="path858" />
          <path
             d="m 137.88926,53.943157 q 0.0423,1.460502 2.13783,1.460502 0.80434,0 1.31234,-0.338667 0.52917,-0.359834 0.52917,-0.825502 0,-0.465667 -0.31751,-0.719667 -0.3175,-0.254001 -0.99483,-0.465668 l -2.24367,-0.804334 q -2.49767,-0.867835 -2.49767,-2.836338 0,-1.312336 1.16417,-2.095504 1.18533,-0.804334 3.15384,-0.804334 1.98967,0 3.048,0.867835 1.0795,0.867834 1.12184,2.18017 h -2.34951 q -0.0423,-0.508001 -0.48683,-0.804335 -0.4445,-0.296334 -1.27,-0.296334 -0.82551,0 -1.29117,0.338667 -0.4445,0.317501 -0.4445,0.740835 0,0.740834 1.24883,1.100668 l 2.43417,0.910168 q 1.2065,0.402168 1.84151,1.037169 0.65616,0.613834 0.65616,1.608669 0,1.270002 -1.2065,2.201337 -1.24883,0.973668 -3.302,0.973668 -2.05317,0 -3.30201,-0.889001 -1.24883,-0.910168 -1.27,-2.540004 z"
             style="font-style:normal;font-variant:normal;font-weight:bold;font-stretch:normal;font-family:Karla;-inkscape-font-specification:'Karla Bold';fill:#696969;fill-opacity:1"
             id="path860" />
        </g>
      </g>
    </g>
  </g>
</svg>
