<?xml version="1.0" encoding="UTF-8" standalone="no"?>
<svg
   xmlns:dc="http://purl.org/dc/elements/1.1/"
   xmlns:cc="http://creativecommons.org/ns#"
   xmlns:rdf="http://www.w3.org/1999/02/22-rdf-syntax-ns#"
   xmlns:svg="http://www.w3.org/2000/svg"
   xmlns="http://www.w3.org/2000/svg"
   xmlns:sodipodi="http://sodipodi.sourceforge.net/DTD/sodipodi-0.dtd"
   xmlns:inkscape="http://www.inkscape.org/namespaces/inkscape"
   id="svg8"
   version="1.1"
   viewBox="0 0 126.96172 22.157758"
   height="83.745857"
   width="479.85532"
   sodipodi:docname="wordmark-inkscape.svg"
   inkscape:version="0.92.3 (2405546, 2018-03-11)">
  <sodipodi:namedview
     pagecolor="#ffffff"
     bordercolor="#666666"
     borderopacity="1"
     objecttolerance="10"
     gridtolerance="10"
     guidetolerance="10"
     inkscape:pageopacity="0"
     inkscape:pageshadow="2"
     inkscape:window-width="1920"
     inkscape:window-height="2132"
     id="namedview993"
     showgrid="false"
     fit-margin-top="0"
     fit-margin-left="0"
     fit-margin-right="0"
     fit-margin-bottom="0"
     inkscape:zoom="1.689124"
     inkscape:cx="348.7825"
     inkscape:cy="-208.22293"
     inkscape:window-x="1920"
     inkscape:window-y="0"
     inkscape:window-maximized="0"
     inkscape:current-layer="layer1" />
  <defs
     id="defs2" />
  <metadata
     id="metadata5">
    <rdf:RDF>
      <cc:Work
         rdf:about="">
        <dc:format>image/svg+xml</dc:format>
        <dc:type
           rdf:resource="http://purl.org/dc/dcmitype/StillImage" />
        <dc:title></dc:title>
      </cc:Work>
    </rdf:RDF>
  </metadata>
  <g
     transform="translate(4.3810629,-279.40848)"
     id="layer1">
    <g
       transform="matrix(0.20003704,0,0,0.20003704,-4.9646922,280.30961)"
       id="g913">
      <g
         id="layer1-3"
         transform="translate(-37.686821,-41.651484)">
        <g
           id="g3787"
           transform="matrix(4.3627161,0,0,4.3627161,43.430203,37.146689)">
          <path
             id="path3767"
             d="M 0,0 H 24 V 24 H 0 Z"
             style="clip-rule:evenodd;fill:none;fill-rule:evenodd"
             inkscape:connector-curvature="0" />
        </g>
      </g>
      <g
         transform="matrix(6.4430177,0,0,6.4430177,-16.411447,-25.818379)"
         id="g3773"
         style="clip-rule:evenodd;fill:#181818;fill-opacity:1;fill-rule:evenodd">
        <path
           inkscape:connector-curvature="0"
           id="path3769"
           d="m 9,17 3,-2.94 C 11.61,14.02 11.32,14 11,14 8.33,14 3,15.34 3,18 v 2 h 9 z m 2,-5 c 2.21,0 4,-1.79 4,-4 C 15,5.79 13.21,4 11,4 8.79,4 7,5.79 7,8 c 0,2.21 1.79,4 4,4"
           style="fill:#181818;fill-opacity:1" />
        <path
           inkscape:connector-curvature="0"
           id="path3771"
           d="M 15.47,20.5 12,17 l 1.4,-1.41 2.07,2.08 5.13,-5.17 1.4,1.41 z"
           style="fill:#181818;fill-opacity:1" />
      </g>
    </g>
    <g
       aria-label="Tutorbook"
       style="font-style:normal;font-variant:normal;font-weight:800;font-stretch:normal;font-size:10.58333302px;line-height:1.25;font-family:Poppins;-inkscape-font-specification:'Poppins Ultra-Bold';letter-spacing:0px;word-spacing:0px;fill:#181818;fill-opacity:1;stroke:none;stroke-width:0.26458332"
       id="text1764"
       transform="matrix(1.6881424,0,0,1.6881424,-3.0593024,-199.89662)">
      <path
         style="font-style:normal;font-variant:normal;font-weight:800;font-stretch:normal;font-family:Poppins;-inkscape-font-specification:'Poppins Ultra-Bold';fill:#181818;fill-opacity:1;stroke-width:0.99999994"
         d="m 196.28516,19.828125 v 29.599609 h 7.88086 v -3.558593 c 0.56,1.2 1.41192,2.146502 2.55859,2.839843 1.14667,0.666659 2.50675,1 4.08008,1 1.78667,0 3.40179,-0.452716 4.84179,-1.359375 1.44,-0.933341 2.57178,-2.266683 3.39844,-4 0.82667,-1.76 1.24024,-3.813472 1.24024,-6.160156 0,-2.346658 -0.41357,-4.387752 -1.24024,-6.121094 -0.82666,-1.733316 -1.95844,-3.052301 -3.39844,-3.958984 -1.44,-0.933317 -3.05512,-1.400391 -4.84179,-1.400391 -1.57333,0 -2.93341,0.345746 -4.08008,1.039063 -1.14667,0.666683 -1.99859,1.600781 -2.55859,2.800781 V 19.828125 Z m 78.125,0 v 29.599609 h 7.88086 v -9.279296 l 6.11914,9.279296 h 9.43945 l -8.95899,-11.199218 8.72071,-11.240235 h -9.16016 l -6.16015,8.720703 V 19.828125 Z m -191.640629,1.28125 v 6.279297 h 7.558594 v 22.039062 h 7.839844 V 27.388672 h 7.640621 v -6.279297 z m 54.408199,0.439453 v 5.439453 h -2.88085 v 6.560547 h 2.88085 v 7.080078 c 0,3.146659 0.7717,5.399766 2.31836,6.759766 1.54667,1.36 3.69474,2.039062 6.44141,2.039062 h 3.24023 v -6.71875 h -2.12109 c -0.72,0 -1.24055,-0.146111 -1.56055,-0.439453 -0.29333,-0.293316 -0.43945,-0.787127 -0.43945,-1.480469 v -7.240234 h 4.04102 v -6.560547 h -4.04102 v -5.439453 z m 26.19141,5.160156 c -2.24,0 -4.2524,0.467074 -6.03906,1.400391 -1.78667,0.906683 -3.18589,2.225668 -4.19922,3.958984 -1.01333,1.733342 -1.52148,3.774436 -1.52148,6.121094 0,2.346684 0.50815,4.385824 1.52148,6.119141 1.01333,1.733341 2.41255,3.066658 4.19922,4 1.78666,0.933316 3.79906,1.40039 6.03906,1.40039 2.24,0 4.24,-0.467074 6,-1.40039 1.78667,-0.933342 3.18784,-2.266659 4.20117,-4 1.01333,-1.733317 1.51953,-3.772457 1.51953,-6.119141 0,-2.32 -0.5062,-4.346761 -1.51953,-6.080078 -1.01333,-1.76 -2.4145,-3.093317 -4.20117,-4 -1.76,-0.933317 -3.76,-1.400391 -6,-1.400391 z m 70.70313,0 c -2.24,0 -4.2524,0.467074 -6.03907,1.400391 -1.78667,0.906683 -3.18588,2.225668 -4.19922,3.958984 -1.01333,1.733342 -1.52148,3.774436 -1.52148,6.121094 0,2.346684 0.50815,4.385824 1.52148,6.119141 1.01334,1.733341 2.41255,3.066658 4.19922,4 1.78667,0.933316 3.79907,1.40039 6.03907,1.40039 2.24,0 4.24,-0.467074 6,-1.40039 1.78666,-0.933342 3.18783,-2.266659 4.20117,-4 1.01333,-1.733317 1.51953,-3.772457 1.51953,-6.119141 0,-2.32 -0.5062,-4.346761 -1.51953,-6.080078 -1.01334,-1.76 -2.41451,-3.093317 -4.20117,-4 -1.76,-0.933317 -3.76,-1.400391 -6,-1.400391 z m 25.46875,0 c -2.24,0 -4.2524,0.467074 -6.03907,1.400391 -1.78666,0.906683 -3.18588,2.225668 -4.19922,3.958984 -1.01333,1.733342 -1.52148,3.774436 -1.52148,6.121094 0,2.346684 0.50815,4.385824 1.52148,6.119141 1.01334,1.733341 2.41256,3.066658 4.19922,4 1.78667,0.933316 3.79907,1.40039 6.03907,1.40039 2.24,0 4.24,-0.467074 6,-1.40039 1.78666,-0.933342 3.18784,-2.266659 4.20117,-4 1.01333,-1.733317 1.51953,-3.772457 1.51953,-6.119141 0,-2.32 -0.5062,-4.346761 -1.51953,-6.080078 -1.01333,-1.76 -2.41451,-3.093317 -4.20117,-4 -1.76,-0.933317 -3.76,-1.400391 -6,-1.400391 z m -65.86329,0.08008 c -1.49333,1e-6 -2.90494,0.399219 -4.23828,1.199219 -1.33333,0.8 -2.44031,1.86783 -3.32031,3.201172 v -4.201172 h -7.88086 v 22.439453 h 7.88086 v -9.679687 c 0,-1.68 0.44031,-2.852873 1.32031,-3.519531 0.88,-0.693342 2.19899,-1.039063 3.95899,-1.039063 h 2.27929 z m -85.52343,0.199219 v 13 c 0,2.986684 0.7345,5.346762 2.20117,7.080078 1.49333,1.706684 3.53247,2.560547 6.11914,2.560547 1.65333,0 3.09365,-0.360078 4.32031,-1.080078 1.22667,-0.72 2.16078,-1.680859 2.80078,-2.880859 v 3.759765 h 7.83985 V 26.988281 h -7.83985 v 11.88086 c 0,1.36 -0.34768,2.413498 -1.04101,3.160156 -0.69334,0.746683 -1.6255,1.119141 -2.79883,1.119141 -1.14667,0 -2.06839,-0.360079 -2.76172,-1.080079 -0.66667,-0.746683 -1,-1.759062 -1,-3.039062 V 26.988281 Z m 55.21484,6.519531 c 1.06667,0 1.96164,0.401172 2.68164,1.201172 0.72,0.8 1.08008,1.960469 1.08008,3.480469 0,1.52 -0.36008,2.692848 -1.08008,3.519531 -0.72,0.8 -1.61497,1.199219 -2.68164,1.199219 -1.09333,0 -1.99875,-0.399219 -2.71875,-1.199219 -0.72,-0.8 -1.08008,-1.972847 -1.08008,-3.519531 0,-1.52 0.36008,-2.680469 1.08008,-3.480469 0.72,-0.8 1.62542,-1.201172 2.71875,-1.201172 z m 70.70313,0 c 1.06666,0 1.96164,0.401172 2.68164,1.201172 0.72,0.8 1.08007,1.960469 1.08007,3.480469 0,1.52 -0.36007,2.692848 -1.08007,3.519531 -0.72,0.8 -1.61498,1.199219 -2.68164,1.199219 -1.09334,0 -1.99875,-0.399219 -2.71875,-1.199219 -0.72,-0.8 -1.08008,-1.972847 -1.08008,-3.519531 0,-1.52 0.36008,-2.680469 1.08008,-3.480469 0.72,-0.8 1.62541,-1.201172 2.71875,-1.201172 z m 25.46875,0 c 1.06666,0 1.96164,0.401172 2.68164,1.201172 0.72,0.8 1.08007,1.960469 1.08007,3.480469 0,1.52 -0.36007,2.692848 -1.08007,3.519531 -0.72,0.8 -1.61498,1.199219 -2.68164,1.199219 -1.09334,0 -1.99875,-0.399219 -2.71875,-1.199219 -0.72,-0.8 -1.08008,-1.972847 -1.08008,-3.519531 0,-1.52 0.36008,-2.680469 1.08008,-3.480469 0.72,-0.8 1.62541,-1.201172 2.71875,-1.201172 z m -51.33594,0.08008 c 1.22666,0 2.21427,0.413576 2.96094,1.240234 0.77333,0.8 1.16015,1.921328 1.16015,3.361328 0,1.466684 -0.38682,2.612795 -1.16015,3.439453 -0.74667,0.8 -1.73428,1.199219 -2.96094,1.199219 -1.17334,0 -2.14659,-0.413576 -2.91992,-1.240234 -0.77334,-0.826684 -1.16016,-1.958438 -1.16016,-3.398438 0,-1.413316 0.38682,-2.534645 1.16016,-3.361328 0.77333,-0.826658 1.74658,-1.240234 2.91992,-1.240234 z"
         transform="matrix(0.26458333,0,0,0.26458333,-4.3810629,281.28815)"
         id="path1654"
         inkscape:connector-curvature="0" />
    </g>
    <text
       id="text1768"
       y="287.97964"
       x="36.54911"
       style="font-style:normal;font-variant:normal;font-weight:normal;font-stretch:normal;font-size:10.58333302px;line-height:1.25;font-family:fontawesome-webfont;-inkscape-font-specification:fontawesome-webfont;letter-spacing:0px;word-spacing:0px;fill:#000000;fill-opacity:1;stroke:none;stroke-width:0.26458332"
       xml:space="preserve"><tspan
         style="stroke-width:0.26458332"
         y="297.34341"
         x="36.54911"
         id="tspan1766" /></text>
    <text
       id="text36"
       y="273.21301"
       x="22.383821"
       style="font-style:normal;font-variant:normal;font-weight:normal;font-stretch:normal;font-size:10.58333302px;line-height:1.25;font-family:fontawesome-webfont;-inkscape-font-specification:fontawesome-webfont;letter-spacing:0px;word-spacing:0px;fill:#000000;fill-opacity:1;stroke:none;stroke-width:0.26458332"
       xml:space="preserve"><tspan
         style="stroke-width:0.26458332"
         y="282.57678"
         x="22.383821"
         id="tspan34" /></text>
  </g>
</svg>
